<?xml version="1.0" encoding="UTF-8"?>
<svg width="71px" height="56px" viewBox="0 0 71 56" version="1.1" xmlns="http://www.w3.org/2000/svg" xmlns:xlink="http://www.w3.org/1999/xlink">
    <!-- Generator: Sketch 55.2 (78181) - https://sketchapp.com -->
    <title>66128-colorful-jelly-beans-vector</title>
    <desc>Created with Sketch.</desc>
    <g id="Page-1" stroke="none" stroke-width="1" fill="none" fill-rule="evenodd" stroke-dasharray="0">
        <g id="profile" transform="translate(-20.000000, -30.000000)" fill-rule="nonzero" stroke="#000000" stroke-width="0.8">
            <g id="66128-colorful-jelly-beans-vector" transform="translate(20.000000, 30.000000)">
                <g transform="translate(-53.000000, -18.000000)">
                    <path d="M68.708993,34.8782241 C67.3158409,30.4076763 67.7064686,28.496316 68.5518007,26.5954084 C69.3971327,24.6944917 72.0251218,23.4123344 75.0543464,23.1077862 C78.0835802,22.8032337 84.5586421,26.6185942 88.1270045,37.2748724 C91.695358,47.9311506 86.2412772,63.7338214 71.4907195,63.0989907 C64.1154316,62.7815753 63.6707749,55.6690278 67.0451071,51.1078127 C70.419439,46.5466022 71.4952971,43.8193065 68.708993,34.8782241 L68.708993,34.8782241 Z" id="svg_1" fill="#FF7F00" transform="translate(77.103386, 43.104287) rotate(-7.328110) translate(-77.103386, -43.104287) "></path>
                    <path d="M58.6030854,69.7495451 C57.2125918,65.1608105 57.5808839,63.2052897 58.3931299,61.2634137 C59.2053758,59.3215287 61.762074,58.0250364 64.7171276,57.7326142 C67.6721903,57.440192 74.0191783,61.3905703 77.5753121,72.3301803 C81.131437,83.2697813 75.9149631,99.4231928 61.5111273,98.6775676 C54.3092004,98.304755 53.8266054,91.0156136 57.0895149,86.3647908 C60.3524242,81.7139772 61.3840725,78.9270138 58.6030854,69.7495448 L58.6030854,69.7495451 Z" id="svg_2" fill="#007FFF" transform="translate(66.904270, 78.210047) rotate(-67.273200) translate(-66.904270, -78.210047) "></path>
                    <path d="M94.3377757,51.1724959 C93.0481654,46.6497414 93.4667213,44.6986793 94.3322597,42.7502359 C95.1977983,40.8017833 97.8053224,39.4512977 100.789839,39.0881357 C103.774366,38.7249691 110.07348,42.491727 113.390932,53.26809 C116.708375,64.0444442 111.060246,80.2145627 96.565504,79.828785 C89.3181239,79.6358963 89.0088442,72.4090638 92.4093614,67.7100666 C95.8098782,63.0110786 96.9169966,60.2179911 94.3377757,51.1724956 L94.3377757,51.1724959 Z" id="svg_4" fill="#06D606" transform="translate(102.313663, 59.449993) rotate(-129.227000) translate(-102.313663, -59.449993) "></path>
                    <path d="M85.1919444,12.7681607 C83.7888601,8.1883234 84.154259,6.23857154 84.9647809,4.30334293 C85.7753028,2.3681054 88.3360332,1.08018745 91.2981163,0.794604115 C94.2602084,0.509011972 100.631287,4.46232782 104.218058,15.3812226 C107.80482,26.3001084 102.60665,42.4013927 88.1642867,41.6280391 C80.9430961,41.2413622 80.4449427,33.9699062 83.7071134,29.3377153 C86.9692839,24.7055335 87.9981128,21.9278346 85.1919443,12.7681604 L85.1919444,12.7681607 Z" id="svg_6" fill="#7F00FF" transform="translate(93.546098, 21.217584) rotate(-60.792100) translate(-93.546098, -21.217584) "></path>
                    <path d="M40.5428966,37.4482236 C39.2498631,32.941517 39.6703168,30.9970553 40.539306,29.0550551 C41.4082997,27.1130502 44.0251694,25.7663617 47.0201194,25.4034662 C50.0150738,25.0405706 56.3351486,28.7922294 59.6616052,39.530274 C62.9880531,50.2683099 57.3166063,66.3844477 42.771711,66.0047996 C35.4992653,65.8149755 35.1905818,58.6132062 38.6039677,53.9293135 C42.0173625,49.2454299 43.1289688,46.4616229 40.5428969,37.4482233 L40.5428966,37.4482236 Z" id="svg_3" fill="#FFFF00" transform="translate(48.542825, 45.695544) rotate(43.873000) translate(-48.542825, -45.695544) "></path>
                </g>
            </g>
        </g>
    </g>
</svg>