<svg xmlns="http://www.w3.org/2000/svg" width="375" height="434" viewBox="0 0 375 434">
    <g fill="none" fill-rule="nonzero" stroke="#000" stroke-dasharray="0" stroke-width=".8">
        <path fill="#F00" d="M5.968 275.834c22.407 9.485 28.754 17.284 33.57 26.776 4.817 9.491 1.322 23.705-7.39 36.212-8.71 12.507-45.155 24.481-99.376 2.813-54.22-21.669-99.414-94.599-48.545-148.502 25.435-26.951 55.278-5.134 62.423 22.75 7.146 27.884 14.505 40.982 59.318 59.951z"/>
        <path fill="#FF7F00" d="M172.092 132.043c-9.946-21.703-9.214-31.624-6.178-41.787 3.037-10.164 15.485-18.357 30.595-21.868 15.11-3.51 50.313 11.574 75.272 63.146 24.958 51.572 7.666 135.04-67.29 141.422-37.479 3.192-44.348-32.49-30.26-57.752 14.088-25.263 17.753-39.755-2.14-83.161z"/>
        <path fill="#007FFF" d="M111.791 369.565c-24.302-2.5-32.768-8.085-40.295-15.73-7.527-7.646-8.587-22.224-4.145-36.698 4.443-14.474 35.502-36.543 93.915-31.717 58.412 4.825 124.059 61.18 92.2 127.454-15.928 33.137-51.135 21.048-66.569-3.46-15.434-24.508-26.5-34.85-75.106-39.85z"/>
        <path fill="#06D606" d="M341.341 309.728c-13.696 19.678-22.745 24.316-33.225 27.18-10.48 2.864-24.212-3.08-35.262-13.698s-16.48-47.645 15.365-95.498 113.868-77.685 159.05-19.188c22.592 29.248-4.936 53.774-34.44 55.494-29.504 1.72-44.096 6.354-71.488 45.71z"/>
        <path fill="#7F00FF" d="M245.29 72.743c-23.857-5.151-31.62-11.63-38.211-20.052-6.592-8.422-5.953-23.024.142-36.918 6.095-13.894 39.518-32.413 96.996-21.208 57.48 11.205 116.164 74.404 76.815 136.758-19.674 31.177-53.252 15.301-65.742-10.743-12.49-26.045-22.286-37.536-70-47.837z"/>
        <path fill="#FF0" d="M74.077 122.812c11.165-21.135 19.576-26.797 29.626-30.864 10.05-4.068 24.417.23 36.699 9.48 12.282 9.25 22.248 45.375-3.453 96.601-25.702 51.226-103.444 90.423-155.528 37.626-26.041-26.398-1.743-53.96 27.334-59.115 29.078-5.154 42.992-11.458 65.322-53.728z"/>
        <path fill="#FFAAD4" d="M38.108 109.053c-8.38 22.32-16.003 28.952-25.456 34.2-9.453 5.25-24.258 2.719-37.626-4.978-13.368-7.696-27.868-42.34-8.906-96.27C-14.917-11.927 57.22-60.202 115.641-14.1c29.21 23.051 8.62 53.333-19.575 61.956-28.195 8.624-41.196 16.558-57.958 61.196z"/>
    </g>
</svg>
