<?xml version="1.0" encoding="UTF-8"?>
<svg width="36px" height="36px" viewBox="0 0 36 36" version="1.1" xmlns="http://www.w3.org/2000/svg" xmlns:xlink="http://www.w3.org/1999/xlink">
    <!-- Generator: Sketch 55.2 (78181) - https://sketchapp.com -->
    <title>profile</title>
    <desc>Created with Sketch.</desc>
    <defs>
        <rect id="path-1" x="0" y="0" width="36" height="36"></rect>
    </defs>
    <g id="profile" stroke="none" stroke-width="1" fill="none" fill-rule="evenodd">
        <g id="ic_24_people-copy-4">
            <mask id="mask-2" fill="white">
                <use xlink:href="#path-1"></use>
            </mask>
            <g id="Rectangle-2"></g>
            <path d="M23.1631435,20.2964218 C24.3422472,18.6307038 25,16.4938771 25,13.5 C25,7.990721 22.6076924,5 18,5 C13.3923076,5 11,7.990721 11,13.5 C11,16.4938771 11.6577528,18.6307038 12.8368565,20.2964218 C13.1843315,20.787299 13.91063,21.5959245 14.1947494,21.8888563 C13.4616883,22.5896422 12.5294703,23.1295168 10.9166786,23.868713 C10.7360899,23.9514828 10.0653513,24.2554725 10.1221971,24.2296335 C6.4464429,25.9004309 5,27.1835657 5,30 C5,30.5522847 5.44771525,31 6,31 C6.55228475,31 7,30.5522847 7,30 C7,28.2525633 7.94054015,27.4182132 10.9498029,26.0503665 C10.8893153,26.0778608 11.5648624,25.7716918 11.749988,25.6868426 C13.6388286,24.821124 14.7437877,24.1704259 15.7071068,23.2071068 C16.1585722,22.7556413 16.3811418,22.2457547 16.285005,21.6689343 C16.1771087,21.0215563 14.5773065,19.2935248 14.4692659,19.140896 C13.5332135,17.8185362 13,16.0862978 13,13.5 C13,9.0094352 14.6073673,7 18,7 C21.3926327,7 23,9.0094352 23,13.5 C23,16.0862978 22.4667865,17.8185362 21.5307341,19.140896 C21.4226935,19.2935248 19.8228913,21.0215563 19.714995,21.6689343 C19.6188582,22.2457547 19.8414278,22.7556413 20.2928932,23.2071068 C21.2562123,24.1704259 22.3611714,24.821124 24.250012,25.6868426 C24.4351376,25.7716918 25.1106847,26.0778608 25.0501971,26.0503665 C28.0594599,27.4182132 29,28.2525633 29,30 C29,30.5522847 29.4477153,31 30,31 C30.5522847,31 31,30.5522847 31,30 C31,27.1835657 29.5535571,25.9004309 25.8778029,24.2296335 C25.9346487,24.2554725 25.2639101,23.9514828 25.0833214,23.868713 C23.4705297,23.1295168 22.5383117,22.5896422 21.8052506,21.8888563 C22.08937,21.5959245 22.8156685,20.787299 23.1631435,20.2964218 Z" id="Path" fill="#FF0000" fill-rule="nonzero" mask="url(#mask-2)"></path>
        </g>
    </g>
</svg>